<svg width="150" height="150" viewBox="0 0 150 150" fill="none" xmlns="http://www.w3.org/2000/svg">
<g clip-path="url(#clip0_58_148)">
<path d="M70.0933 0.117171C69.771 0.146465 68.7457 0.248994 67.823 0.322229C46.5409 2.24099 26.6063 13.7242 13.9806 31.3739C6.95001 41.1874 2.45338 52.3191 0.754329 64.1099C0.153801 68.2258 0.0805664 69.4415 0.0805664 75.022C0.0805664 80.6025 0.153801 81.8182 0.754329 85.934C4.8262 114.071 24.8487 137.711 52.0042 146.47C56.867 148.037 61.9935 149.107 67.823 149.751C70.0933 150 79.9068 150 82.177 149.751C92.2395 148.638 100.764 146.148 109.171 141.856C110.46 141.197 110.709 141.021 110.534 140.875C110.416 140.787 104.924 133.42 98.3327 124.514L86.3514 108.329L71.3383 86.1098C63.0773 73.8942 56.2811 63.9049 56.2225 63.9049C56.164 63.8902 56.1054 73.7623 56.0761 85.8168C56.0321 106.923 56.0175 107.773 55.7538 108.271C55.373 108.988 55.0801 109.281 54.4649 109.604C53.9962 109.838 53.5861 109.882 51.3744 109.882H48.8405L48.1667 109.457C47.7273 109.179 47.405 108.813 47.1853 108.388L46.8778 107.729L46.907 78.3615L46.951 48.9796L47.405 48.4084C47.6394 48.1008 48.1374 47.7053 48.4889 47.5149C49.0895 47.2219 49.3238 47.1927 51.8577 47.1927C54.8457 47.1927 55.3437 47.3098 56.12 48.1594C56.3397 48.3937 64.4688 60.6386 74.1944 75.3881C83.92 90.1377 97.2195 110.277 103.752 120.164L115.616 138.136L116.217 137.74C121.534 134.284 127.158 129.362 131.611 124.236C141.087 113.353 147.195 100.083 149.246 85.934C149.846 81.8182 149.919 80.6025 149.919 75.022C149.919 69.4415 149.846 68.2258 149.246 64.1099C145.174 35.973 125.151 12.3328 97.9958 3.57387C93.2062 2.02128 88.1091 0.952051 82.3967 0.307582C80.9906 0.161112 71.309 -4.68857e-06 70.0933 0.117171ZM100.764 45.435C101.467 45.7865 102.038 46.4603 102.243 47.1634C102.361 47.5442 102.39 55.6879 102.361 74.0406L102.317 100.376L97.6736 93.2575L93.0158 86.1391V66.9954C93.0158 54.6187 93.0744 47.6614 93.1623 47.3245C93.3966 46.5042 93.9093 45.8598 94.6124 45.4789C95.2129 45.1714 95.4326 45.1421 97.7322 45.1421C99.8999 45.1421 100.281 45.1714 100.764 45.435Z" fill="black"/>
<path d="M114.884 138.458C114.371 138.78 114.21 139 114.664 138.751C114.986 138.561 115.514 138.165 115.426 138.151C115.382 138.151 115.133 138.297 114.884 138.458ZM113.873 139.117C113.61 139.322 113.61 139.337 113.932 139.176C114.108 139.088 114.254 138.985 114.254 138.956C114.254 138.839 114.181 138.868 113.873 139.117ZM113.141 139.557C112.877 139.762 112.877 139.776 113.199 139.615C113.375 139.527 113.522 139.425 113.522 139.396C113.522 139.278 113.448 139.308 113.141 139.557ZM112.408 139.996C112.145 140.201 112.145 140.216 112.467 140.055C112.643 139.967 112.789 139.864 112.789 139.835C112.789 139.718 112.716 139.747 112.408 139.996ZM111.295 140.582C110.739 140.875 110.768 140.992 111.325 140.714C111.574 140.582 111.764 140.45 111.764 140.421C111.764 140.318 111.749 140.333 111.295 140.582Z" fill="black"/>
</g>
<defs>
<clipPath id="clip0_58_148">
<rect width="150" height="150" fill="white"/>
</clipPath>
</defs>
</svg>
