<svg width="150" height="150" viewBox="0 0 150 150" fill="none" xmlns="http://www.w3.org/2000/svg">
<g clip-path="url(#clip0_58_172)">
<path d="M147.171 68.3168L81.6797 2.82888C77.9103 -0.942798 71.7932 -0.942798 68.0191 2.82888L54.4195 16.4285L71.6713 33.6802C75.6803 32.3256 80.2775 33.2343 83.4732 36.4301C86.6842 39.6463 87.5865 44.2828 86.199 48.3047L102.825 64.9312C106.847 63.5455 111.489 64.442 114.701 67.6599C119.191 72.1482 119.191 79.4226 114.701 83.9138C110.21 88.4056 102.936 88.4056 98.4422 83.9138C95.0648 80.533 94.2305 75.573 95.9402 71.4123L80.4352 55.9072L80.4334 96.7101C81.5574 97.2659 82.584 98 83.4732 98.884C87.9633 103.372 87.9633 110.647 83.4732 115.142C78.982 119.631 71.7041 119.631 67.2193 115.142C62.7293 110.647 62.7293 103.373 67.2193 98.8845C68.2953 97.808 69.5741 96.9554 70.9816 96.3761V55.1929C69.572 54.6175 68.2926 53.7645 67.2193 52.6845C63.8174 49.2873 62.9994 44.2957 64.7426 40.1185L47.7363 23.1105L2.83008 68.0138C-0.943359 71.789 -0.943359 77.9068 2.83008 81.6791L68.3227 147.168C72.0932 150.94 78.2092 150.94 81.9844 147.168L147.171 81.9832C150.943 78.2097 150.943 72.0885 147.171 68.3168Z" fill="#DE4C36"/>
</g>
<defs>
<clipPath id="clip0_58_172">
<rect width="150" height="150" fill="white"/>
</clipPath>
</defs>
</svg>
