<svg width="150" height="225" viewBox="0 0 150 225" fill="none" xmlns="http://www.w3.org/2000/svg">
<g clip-path="url(#clip0_58_166)">
<path d="M37.5075 224.955C58.2034 224.955 75 208.158 75 187.462V149.97H37.5075C16.8117 149.97 0.0150146 166.767 0.0150146 187.462C0.0150146 208.158 16.8117 224.955 37.5075 224.955Z" fill="#0ACF83"/>
<path d="M0.0150146 112.477C0.0150146 91.7816 16.8117 74.985 37.5075 74.985H75V149.97H37.5075C16.8117 149.97 0.0150146 133.173 0.0150146 112.477Z" fill="#A259FF"/>
<path d="M0.0150146 37.4925C0.0150146 16.7966 16.8117 0 37.5075 0H75V74.985H37.5075C16.8117 74.985 0.0150146 58.1884 0.0150146 37.4925Z" fill="#F24E1E"/>
<path d="M75 0H112.493C133.188 0 149.985 16.7966 149.985 37.4925C149.985 58.1884 133.188 74.985 112.493 74.985H75V0Z" fill="#FF7262"/>
<path d="M149.985 112.477C149.985 133.173 133.188 149.97 112.493 149.97C91.7966 149.97 75 133.173 75 112.477C75 91.7816 91.7966 74.985 112.493 74.985C133.188 74.985 149.985 91.7816 149.985 112.477Z" fill="#1ABCFE"/>
</g>
<defs>
<clipPath id="clip0_58_166">
<rect width="150" height="224.955" fill="white"/>
</clipPath>
</defs>
</svg>
