<svg width="150" height="150" viewBox="0 0 150 150" fill="none" xmlns="http://www.w3.org/2000/svg">
<g clip-path="url(#clip0_58_163)">
<path d="M0 0H150V150H0V0Z" fill="#F0DB4F"/>
<path d="M137.723 114.225C136.625 107.381 132.163 101.635 118.945 96.2738C114.354 94.1635 109.235 92.6523 107.709 89.173C107.167 87.1483 107.096 86.0076 107.438 84.7814C108.422 80.8032 113.17 79.5628 116.934 80.7034C119.358 81.5162 121.654 83.3842 123.037 86.3641C129.51 82.1722 129.496 82.2006 134.016 79.3205C132.362 76.754 131.478 75.5704 130.394 74.4726C126.502 70.1237 121.198 67.8851 112.714 68.0562C111.245 68.2416 109.762 68.4411 108.294 68.6266C104.059 69.696 100.024 71.9203 97.6568 74.9004C90.5561 82.9564 92.5808 97.058 101.221 102.861C109.734 109.249 122.239 110.704 123.836 116.678C125.39 123.993 118.46 126.359 111.573 125.518C106.497 124.463 103.674 121.882 100.623 117.191C95.0049 120.442 95.0049 120.442 89.2302 123.764C90.599 126.759 92.039 128.113 94.3347 130.708C105.2 141.73 132.391 141.188 137.267 124.506C137.467 123.935 138.779 120.114 137.723 114.225ZM81.5447 68.9401H67.5142C67.5142 81.0599 67.4574 93.0941 67.4574 105.214C67.4574 112.928 67.8566 120 66.6018 122.167C64.5486 126.43 59.2302 125.903 56.8062 125.076C54.3395 123.864 53.0847 122.139 51.6304 119.701C51.2311 119.002 50.9317 118.46 50.8317 118.417C47.0248 120.741 43.2319 123.08 39.4249 125.404C41.3214 129.297 44.116 132.676 47.6949 134.872C53.0418 138.08 60.2281 139.064 67.7425 137.338C72.6332 135.912 76.8536 132.961 79.0637 128.47C82.2576 122.581 81.5732 115.452 81.5447 107.567C81.616 94.7053 81.5447 81.8441 81.5447 68.9401Z" fill="#323330"/>
</g>
<defs>
<clipPath id="clip0_58_163">
<rect width="150" height="150" fill="white"/>
</clipPath>
</defs>
</svg>
