<svg width="150" height="136" viewBox="0 0 150 136" fill="none" xmlns="http://www.w3.org/2000/svg">
<g clip-path="url(#clip0_58_182)">
<path fill-rule="evenodd" clip-rule="evenodd" d="M30.4784 48.7876L74.8437 135.624L0.273621 48.7876H30.4784Z" fill="#EA6C00"/>
<path fill-rule="evenodd" clip-rule="evenodd" d="M119.222 48.7876L74.8563 135.624L149.426 48.7876H119.222Z" fill="#EA6C00"/>
<path fill-rule="evenodd" clip-rule="evenodd" d="M30.4768 48.7876H119.207L74.8421 135.624L30.4768 48.7876Z" fill="#FDAD00"/>
<path fill-rule="evenodd" clip-rule="evenodd" d="M74.8421 0.663086L32.8119 5.10593L30.4768 48.7876L74.8421 0.663086Z" fill="#FDD231"/>
<path fill-rule="evenodd" clip-rule="evenodd" d="M74.8421 0.663086L116.872 5.10593L119.207 48.7876L74.8421 0.663086Z" fill="#FDD231"/>
<path fill-rule="evenodd" clip-rule="evenodd" d="M149.426 48.7876L116.887 5.10596L119.222 48.7876H149.426Z" fill="#FDAD00"/>
<path fill-rule="evenodd" clip-rule="evenodd" d="M0.273621 48.7876L32.8135 5.10596L30.4784 48.7876H0.273621Z" fill="#FDAD00"/>
<path fill-rule="evenodd" clip-rule="evenodd" d="M74.8421 0.663086L30.4768 48.7876H119.207L74.8421 0.663086Z" fill="#FEEEB7"/>
</g>
<defs>
<clipPath id="clip0_58_182">
<rect width="150" height="135.78" fill="white"/>
</clipPath>
</defs>
</svg>
