<svg width="150" height="113" viewBox="0 0 150 113" fill="none" xmlns="http://www.w3.org/2000/svg">
<g clip-path="url(#clip0_58_155)">
<path d="M129.082 64.6289C123.838 64.6585 119.297 65.918 115.488 67.7933C114.082 65.0101 112.676 62.5781 112.442 60.762C112.178 58.6526 111.856 57.3633 112.178 54.844C112.5 52.3242 113.965 48.75 113.965 48.457C113.935 48.1934 113.642 46.9043 110.625 46.875C107.608 46.8457 105 47.4609 104.707 48.252C104.414 49.043 103.828 50.8594 103.447 52.7344C102.92 55.4883 97.4121 65.2441 94.2773 70.3711C93.2519 68.3789 92.373 66.6211 92.197 65.2146C91.9336 63.1055 91.611 61.8161 91.9336 59.2969C92.2559 56.7771 93.7207 53.2031 93.7207 52.9102C93.6914 52.6465 93.3984 51.3574 90.3812 51.3281C87.3633 51.2988 84.7562 51.9141 84.4632 52.7051C84.1702 53.4961 83.848 55.3711 83.2034 57.1875C82.5879 59.0039 75.2637 75.293 73.3594 79.541C72.3926 81.709 71.5433 83.4375 70.9277 84.6094C70.3125 85.7813 70.8984 84.6973 70.8398 84.8145C70.3125 85.8106 70.0195 86.3672 70.0195 86.3672V86.3968C69.6094 87.1292 69.1699 87.832 68.9646 87.832C68.8181 87.832 68.5251 85.8691 69.0231 83.1741C70.1071 77.5195 72.7438 68.7015 72.7148 68.3792C72.7148 68.2327 73.2126 66.6797 71.0153 65.889C68.8767 65.098 68.1152 66.4163 67.9392 66.4163C67.7634 66.4163 67.6169 66.8851 67.6169 66.8851C67.6169 66.8851 69.9899 56.9537 63.0759 56.9537C58.7399 56.9537 52.7634 61.6705 49.8044 65.9771C47.9294 67.0025 43.945 69.1702 39.7263 71.485C38.1149 72.3639 36.445 73.3014 34.863 74.151L34.541 73.7988C26.1621 64.8633 10.6641 58.5352 11.3086 46.5234C11.543 42.1582 13.0664 30.6445 41.0745 16.6992C64.014 5.27344 82.3831 8.40821 85.5762 15.3809C90.1172 25.3418 75.7617 43.8574 51.9144 46.5234C42.8323 47.5488 38.0566 44.0332 36.8558 42.7148C35.596 41.3379 35.4202 41.2793 34.9515 41.543C34.1897 41.9531 34.6585 43.1836 34.9515 43.916C35.6546 45.7617 38.5843 49.043 43.5647 50.6836C47.9297 52.1191 58.594 52.9102 71.4847 47.9297C85.928 42.334 97.2073 26.8066 93.8968 13.8281C90.5276 0.61524 68.6136 -3.7207 47.9007 3.63282C35.5664 8.02735 22.207 14.8828 12.5977 23.877C1.17188 34.541 -0.644531 43.8574 0.117188 47.7246C2.7835 61.5234 21.7969 70.5176 29.4141 77.168C29.0332 77.3728 28.6816 77.5778 28.3594 77.7539C24.5508 79.6286 10.0488 87.2168 6.41602 95.2439C2.31445 104.326 7.06055 110.859 10.2246 111.738C20.0098 114.463 30.0293 109.57 35.4492 101.514C40.8396 93.457 40.1953 82.9981 37.7051 78.2227L37.6169 78.0469L40.6052 76.2891C42.5391 75.1465 44.4434 74.0918 46.113 73.1833C45.1758 75.7321 44.5017 78.7497 44.1504 83.1442C43.7402 88.3008 45.8496 94.9802 48.6328 97.6169C49.8633 98.7592 51.3281 98.7888 52.2363 98.7888C55.459 98.7888 56.9238 96.1225 58.5352 92.9294C60.5273 89.0329 62.2852 84.5212 62.2852 84.5212C62.2852 84.5212 60.0879 96.738 66.0938 96.738C68.291 96.738 70.4883 93.8962 71.4844 92.4314V92.4607C71.4844 92.4607 71.543 92.3728 71.6602 92.1677C71.7831 91.9859 71.9003 91.8004 72.0117 91.6113V91.5527C72.8906 90.0293 74.8535 86.543 77.7832 80.7715C81.5622 73.3301 85.1953 64.0137 85.1953 64.0137C85.1953 64.0137 85.5469 66.2988 86.6309 70.0488C87.2751 72.2757 88.6813 74.707 89.7653 77.0801C88.8864 78.3106 88.3591 79.014 88.3591 79.014L88.3884 79.0433C87.6855 79.9808 86.8942 80.9772 86.0742 81.973C83.0859 85.5472 79.5117 89.6197 79.043 90.7916C78.4863 92.1683 78.6035 93.1937 79.6875 94.0143C80.4785 94.6002 81.8848 94.7171 83.3789 94.6002C86.0742 94.4241 87.9492 93.7506 88.8867 93.3401C90.3516 92.8128 92.0215 92.0218 93.6328 90.8499C96.5625 88.6822 98.3496 85.6061 98.1738 81.5045C98.0859 79.2486 97.3535 77.0221 96.4453 74.9127C96.709 74.5318 96.9729 74.1507 97.2363 73.7408C101.865 66.973 105.439 59.5318 105.439 59.5318C105.439 59.5318 105.791 61.817 106.875 65.567C107.431 67.4713 108.545 69.5517 109.541 71.6024C105.205 75.1474 102.48 79.2489 101.543 81.9442C99.8145 86.9247 101.162 89.1806 103.711 89.7079C104.853 89.9423 106.494 89.415 107.724 88.8876C109.248 88.3896 111.093 87.5397 112.793 86.2802C115.723 84.1122 118.535 81.0946 118.389 77.0224C118.301 75.1474 117.803 73.3017 117.129 71.5439C120.82 70.0204 125.595 69.1415 131.66 69.8739C144.697 71.3974 147.275 79.5419 146.778 82.9403C146.28 86.3391 143.555 88.2138 142.646 88.7997C141.738 89.3564 141.445 89.5617 141.533 89.9716C141.65 90.5871 142.061 90.5575 142.852 90.4406C143.936 90.2646 149.707 87.6574 149.941 81.3882C150.293 73.3304 142.646 64.5413 129.082 64.6289ZM28.5352 98.5254C24.2285 103.242 18.1641 105.029 15.5859 103.506C12.8027 101.895 13.8864 94.9512 19.1895 89.9414C22.4121 86.8945 26.6016 84.082 29.3555 82.3535C29.9707 81.9727 30.9082 81.4163 32.0215 80.7422C32.1973 80.6253 32.3145 80.5664 32.3145 80.5664C32.5195 80.4492 32.7539 80.3027 32.9883 80.1563C34.9512 87.3047 33.0762 93.5742 28.5352 98.5254ZM60.0293 77.1094C58.5352 80.7715 55.3711 90.1758 53.4668 89.6484C51.8259 89.209 50.8301 82.0899 53.1442 75.0586C54.3161 71.5134 56.8063 67.2949 58.2712 65.654C60.6445 63.0173 63.2224 62.1384 63.8672 63.2224C64.6289 64.6289 60.9668 74.8242 60.0293 77.1094ZM86.0156 89.5313C85.3711 89.8538 84.7852 90.0879 84.5215 89.9124C84.3164 89.7952 84.7849 89.3558 84.7849 89.3558C84.7849 89.3558 88.0368 85.8694 89.3259 84.2581C90.0583 83.3209 90.9372 82.2369 91.8747 81.0062V81.3577C91.875 85.5762 87.832 88.3887 86.0156 89.5313ZM106.054 84.9609C105.586 84.6094 105.645 83.5254 107.226 80.127C107.842 78.7793 109.248 76.5234 111.679 74.3848C111.972 75.2637 112.148 76.113 112.119 76.9043C112.09 82.1777 108.34 84.1406 106.054 84.9609Z" fill="#CF649A"/>
</g>
<defs>
<clipPath id="clip0_58_155">
<rect width="150" height="112.5" fill="white"/>
</clipPath>
</defs>
</svg>
