<svg width="150" height="147" viewBox="0 0 150 147" fill="none" xmlns="http://www.w3.org/2000/svg">
<g clip-path="url(#clip0_58_195)">
<path d="M26.5625 0.0150146H123.438C138.125 0.0150146 150 11.89 150 26.5775V119.703C150 134.39 138.125 146.265 123.438 146.265H26.5625C11.875 146.265 0 134.39 0 119.703V26.5775C0 11.89 11.875 0.0150146 26.5625 0.0150146Z" fill="#001E36"/>
<path d="M33.75 102.578V38.265C33.75 37.8275 33.9375 37.5775 34.375 37.5775C35.4375 37.5775 36.4375 37.5775 37.875 37.515C39.375 37.4525 40.9375 37.4525 42.625 37.39C44.3125 37.3275 46.125 37.3275 48.0625 37.265C50 37.2025 51.875 37.2025 53.75 37.2025C58.875 37.2025 63.125 37.8275 66.625 39.14C69.75 40.2025 72.625 41.9525 75 44.265C77 46.265 78.5625 48.7025 79.5625 51.39C80.5 54.015 81 56.7025 81 59.515C81 64.89 79.75 69.3275 77.25 72.8275C74.75 76.3275 71.25 78.9525 67.1875 80.4525C62.9375 82.015 58.25 82.5775 53.125 82.5775C51.625 82.5775 50.625 82.5775 50 82.515C49.375 82.4525 48.5 82.4525 47.3125 82.4525V102.515C47.375 102.953 47.0625 103.328 46.625 103.39H34.5C34 103.39 33.75 103.14 33.75 102.578ZM47.375 49.64V70.64C48.25 70.7025 49.0625 70.765 49.8125 70.765H53.125C55.5625 70.765 58 70.39 60.3125 69.64C62.3125 69.0775 64.0625 67.89 65.4375 66.3275C66.75 64.765 67.375 62.64 67.375 59.89C67.4375 57.9525 66.9375 56.015 65.9375 54.3275C64.875 52.7025 63.375 51.4525 61.5625 50.765C59.25 49.8275 56.75 49.4525 54.1875 49.515C52.5625 49.515 51.125 49.515 49.9375 49.5775C48.6875 49.515 47.8125 49.5775 47.375 49.64ZM120 66.8275C118.125 65.8275 116.125 65.14 114 64.7025C111.687 64.2025 109.375 63.89 107 63.89C105.75 63.8275 104.437 64.015 103.25 64.3275C102.437 64.515 101.75 64.9525 101.313 65.5775C101 66.0775 100.813 66.7025 100.813 67.265C100.813 67.8275 101.063 68.39 101.438 68.89C102 69.5775 102.75 70.14 103.562 70.5775C105 71.3275 106.5 72.015 108 72.64C111.375 73.765 114.625 75.3275 117.625 77.2025C119.687 78.515 121.375 80.265 122.563 82.39C123.563 84.39 124.062 86.5775 124 88.8275C124.062 91.765 123.187 94.7025 121.562 97.14C119.813 99.64 117.375 101.578 114.563 102.703C111.5 104.015 107.75 104.703 103.25 104.703C100.375 104.703 97.5625 104.453 94.75 103.89C92.5625 103.515 90.375 102.828 88.375 101.89C87.9375 101.64 87.625 101.203 87.6875 100.703V89.8275C87.6875 89.64 87.75 89.39 87.9375 89.265C88.125 89.14 88.3125 89.2025 88.5 89.3275C90.9375 90.765 93.5 91.765 96.25 92.39C98.625 93.015 101.125 93.3275 103.625 93.3275C106 93.3275 107.688 93.015 108.813 92.4525C109.813 92.015 110.5 90.9525 110.5 89.8275C110.5 88.9525 110 88.14 109 87.3275C108 86.515 105.938 85.5775 102.875 84.39C99.6875 83.265 96.75 81.765 94 79.89C92.0625 78.515 90.4375 76.7025 89.25 74.5775C88.25 72.5775 87.75 70.39 87.8125 68.2025C87.8125 65.515 88.5625 62.9525 89.9375 60.64C91.5 58.14 93.8125 56.14 96.5 54.89C99.4375 53.39 103.125 52.7025 107.563 52.7025C110.125 52.7025 112.75 52.89 115.312 53.265C117.188 53.515 119 54.015 120.688 54.7025C120.938 54.765 121.188 55.015 121.313 55.265C121.375 55.515 121.438 55.765 121.438 56.015V66.2025C121.438 66.4525 121.313 66.7025 121.125 66.8275C120.563 66.9525 120.25 66.9525 120 66.8275Z" fill="#31A8FF"/>
</g>
<defs>
<clipPath id="clip0_58_195">
<rect width="150" height="146.28" fill="white"/>
</clipPath>
</defs>
</svg>
