<svg width="150" height="91" viewBox="0 0 150 91" fill="none" xmlns="http://www.w3.org/2000/svg">
<g clip-path="url(#clip0_58_161)">
<path d="M75 0.119995C55.0002 0.119995 42.4998 10.1202 37.5 30.12C45 20.1198 53.7498 16.3698 63.75 18.87C69.4553 20.2962 73.5334 24.4358 78.0475 29.0173C85.401 36.4815 93.9111 45.12 112.5 45.12C132.5 45.12 145 35.1198 150 15.12C142.5 25.1202 133.75 28.8702 123.75 26.37C118.045 24.9438 113.967 20.8042 109.453 16.2227C102.099 8.75847 93.5889 0.119995 75 0.119995ZM37.5 45.12C17.5002 45.12 4.9998 55.1202 0 75.12C7.5 65.1198 16.2498 61.3698 26.25 63.87C31.9553 65.2962 36.0334 69.4358 40.5475 74.0173C47.901 81.4815 56.4111 90.12 75 90.12C94.9998 90.12 107.5 80.1198 112.5 60.12C105 70.1202 96.2502 73.8702 86.25 71.37C80.5447 69.9438 76.4666 65.8042 71.9525 61.2227C64.599 53.7585 56.0889 45.12 37.5 45.12Z" fill="url(#paint0_linear_58_161)"/>
</g>
<defs>
<linearGradient id="paint0_linear_58_161" x1="-1066.75" y1="4423.8" x2="-622.586" y2="9407.91" gradientUnits="userSpaceOnUse">
<stop stop-color="#2298BD"/>
<stop offset="1" stop-color="#0ED7B5"/>
</linearGradient>
<clipPath id="clip0_58_161">
<rect width="150" height="90.24" fill="white"/>
</clipPath>
</defs>
</svg>
