<svg width="150" height="146" viewBox="0 0 150 146" fill="none" xmlns="http://www.w3.org/2000/svg">
<g clip-path="url(#clip0_58_199)">
<path d="M74.71 0C33.4541 0 0 33.4482 0 74.71C0 107.719 21.4066 135.724 51.0914 145.603C54.825 146.294 56.1961 143.982 56.1961 142.008C56.1961 140.227 56.1264 134.341 56.0947 128.099C35.3098 132.618 30.924 119.284 30.924 119.284C27.5256 110.648 22.6289 108.353 22.6289 108.353C15.8508 103.716 23.1398 103.811 23.1398 103.811C30.6422 104.338 34.5926 111.51 34.5926 111.51C41.2559 122.931 52.0699 119.629 56.3332 117.721C57.0035 112.891 58.94 109.596 61.0764 107.73C44.4826 105.841 27.0381 99.4348 27.0381 70.8082C27.0381 62.6519 29.9566 55.9869 34.7361 50.7551C33.9604 48.873 31.4033 41.2746 35.4598 30.9838C35.4598 30.9838 41.7334 28.9758 56.0104 38.642C61.9693 36.9861 68.3607 36.1564 74.71 36.1283C81.0592 36.1564 87.4553 36.9861 93.426 38.642C107.686 28.9758 113.951 30.9838 113.951 30.9838C118.017 41.2746 115.459 48.873 114.683 50.7551C119.473 55.9869 122.372 62.6514 122.372 70.8082C122.372 99.5027 104.895 105.821 88.2586 107.671C90.9381 109.989 93.3258 114.536 93.3258 121.506C93.3258 131.502 93.2391 139.547 93.2391 142.008C93.2391 143.996 94.5838 146.326 98.3713 145.593C128.04 135.703 149.419 107.708 149.419 74.71C149.419 33.4482 115.97 0 74.71 0Z" fill="#161614"/>
<path d="M27.9815 106.426C27.8174 106.797 27.2326 106.908 26.7012 106.654C26.1592 106.41 25.8545 105.904 26.0303 105.531C26.1914 105.149 26.7762 105.043 27.317 105.299C27.8602 105.543 28.1696 106.054 27.9815 106.426ZM31.6565 109.705C31.3002 110.036 30.6035 109.882 30.1307 109.36C29.642 108.839 29.5506 108.143 29.9121 107.807C30.2795 107.477 30.9551 107.631 31.445 108.153C31.9336 108.68 32.0285 109.372 31.6559 109.706M34.1778 113.9C33.7196 114.219 32.9707 113.92 32.5084 113.256C32.0508 112.592 32.0508 111.795 32.5184 111.476C32.9825 111.156 33.7196 111.444 34.1883 112.103C34.6453 112.778 34.6453 113.575 34.1772 113.901M38.441 118.76C38.0315 119.211 37.1596 119.09 36.5209 118.474C35.8682 117.871 35.686 117.016 36.0967 116.565C36.511 116.112 37.3881 116.239 38.0315 116.851C38.6801 117.452 38.8776 118.313 38.441 118.76ZM43.9512 120.4C43.7713 120.985 42.9311 121.251 42.085 121.003C41.2401 120.746 40.6869 120.061 40.8575 119.47C41.0332 118.881 41.877 118.604 42.7295 118.87C43.5733 119.125 44.127 119.805 43.9512 120.4ZM50.2231 121.096C50.2442 121.712 49.5264 122.223 48.6381 122.234C47.7446 122.254 47.0221 121.755 47.0127 121.149C47.0127 120.527 47.7141 120.021 48.6071 120.006C49.4953 119.988 50.2231 120.483 50.2231 121.096ZM56.3836 120.86C56.4903 121.461 55.8727 122.078 54.9909 122.242C54.1237 122.401 53.3209 122.03 53.2102 121.434C53.1024 120.817 53.7317 120.2 54.5971 120.04C55.4807 119.887 56.2711 120.248 56.3836 120.86Z" fill="#161614"/>
</g>
<defs>
<clipPath id="clip0_58_199">
<rect width="150" height="145.92" fill="white"/>
</clipPath>
</defs>
</svg>
