<svg width="150" height="171" viewBox="0 0 150 171" fill="none" xmlns="http://www.w3.org/2000/svg">
<path d="M150 85.4756C150 75.5388 137.556 66.1218 118.477 60.282C122.88 40.8364 120.923 25.3656 112.301 20.4124C110.314 19.2506 107.99 18.7003 105.452 18.7003V25.5184C106.859 25.5184 107.99 25.7936 108.938 26.3134C113.096 28.6982 114.9 37.7789 113.494 49.4585C113.157 52.3325 112.607 55.3594 111.934 58.4475C105.942 56.9799 99.3987 55.8486 92.5194 55.1148C88.3918 49.4585 84.1113 44.3219 79.8002 39.8274C89.7676 30.5633 99.1235 25.4879 105.483 25.4879V18.6697C97.075 18.6697 86.0681 24.6623 74.9389 35.0578C63.8096 24.7235 52.8027 18.792 44.3946 18.792V25.6102C50.7236 25.6102 60.1101 30.655 70.0775 39.858C65.797 44.3525 61.5165 49.4585 57.4501 55.1148C50.5402 55.8486 43.9971 56.9799 38.0045 58.4781C37.3013 55.4206 36.7815 52.4548 36.4146 49.6114C34.9776 37.9318 36.7509 28.8511 40.8785 26.4357C41.7958 25.8853 42.9882 25.6407 44.3946 25.6407V18.8226C41.8263 18.8226 39.5026 19.3729 37.4847 20.5347C28.8932 25.4879 26.967 40.9281 31.4003 60.3126C12.3828 66.1829 0 75.5694 0 85.4756C0 95.4124 12.4439 104.829 31.5226 110.669C27.1199 130.115 29.0766 145.586 37.6987 150.539C39.6861 151.701 42.0098 152.251 44.5781 152.251C52.9861 152.251 63.9931 146.258 75.1223 135.863C86.2515 146.197 97.2585 152.129 105.667 152.129C108.235 152.129 110.559 151.578 112.576 150.417C121.168 145.463 123.094 130.023 118.661 110.639C137.617 104.799 150 95.3819 150 85.4756ZM110.192 65.0822C109.06 69.0264 107.654 73.0928 106.064 77.1593C104.81 74.7133 103.496 72.2673 102.059 69.8213C100.652 67.3753 99.1541 64.9905 97.6559 62.6668C101.998 63.3089 106.186 64.1038 110.192 65.0822ZM96.1883 97.6444C93.8035 101.772 91.3575 105.686 88.8198 109.324C84.2642 109.721 79.6474 109.935 75 109.935C70.3832 109.935 65.7664 109.721 61.2413 109.355C58.7036 105.716 56.2271 101.833 53.8422 97.7361C51.5185 93.7308 49.4089 89.6644 47.4827 85.5674C49.3783 81.4703 51.5186 77.3733 53.8117 73.368C56.1965 69.2404 58.6425 65.3268 61.1802 61.6884C65.7358 61.291 70.3526 61.0769 75 61.0769C79.6168 61.0769 84.2336 61.291 88.7587 61.6579C91.2964 65.2963 93.7729 69.1793 96.1578 73.2763C98.4815 77.2816 100.591 81.348 102.517 85.4451C100.591 89.5421 98.4814 93.6391 96.1883 97.6444ZM106.064 93.6697C107.715 97.7667 109.121 101.864 110.283 105.838C106.278 106.817 102.059 107.642 97.6865 108.284C99.1847 105.93 100.683 103.515 102.089 101.038C103.496 98.5922 104.81 96.1157 106.064 93.6697ZM75.0612 126.293C72.2177 123.358 69.3742 120.086 66.5614 116.509C69.3131 116.631 72.126 116.723 74.9694 116.723C77.8435 116.723 80.6869 116.662 83.4692 116.509C80.7175 120.086 77.874 123.358 75.0612 126.293ZM52.3135 108.284C47.9719 107.642 43.7831 106.847 39.7778 105.869C40.9091 101.925 42.3155 97.8584 43.9054 93.792C45.159 96.238 46.4737 98.684 47.9107 101.13C49.3477 103.576 50.8153 105.961 52.3135 108.284ZM74.9083 44.6583C77.7517 47.5934 80.5952 50.865 83.4081 54.4422C80.6563 54.3199 77.8435 54.2282 75 54.2282C72.126 54.2282 69.2825 54.2893 66.5002 54.4422C69.2519 50.865 72.0954 47.5934 74.9083 44.6583ZM52.2829 62.6668C50.7848 65.0211 49.2866 67.4365 47.8801 69.9131C46.4737 72.359 45.159 74.805 43.9054 77.251C42.2544 73.154 40.8479 69.057 39.6861 65.0822C43.6914 64.1344 47.9107 63.3089 52.2829 62.6668ZM24.6127 100.946C13.7892 96.3297 6.78761 90.2759 6.78761 85.4756C6.78761 80.6754 13.7892 74.591 24.6127 70.0048C27.2422 68.8735 30.1162 67.8645 33.0819 66.9167C34.8247 72.9094 37.1178 79.1467 39.9613 85.5368C37.1484 91.8963 34.8859 98.103 33.1737 104.065C30.1468 103.117 27.2727 102.078 24.6127 100.946ZM41.062 144.638C36.9038 142.253 35.0999 133.172 36.5063 121.493C36.8426 118.619 37.393 115.592 38.0656 112.504C44.0583 113.971 50.6013 115.103 57.4806 115.836C61.6082 121.493 65.8887 126.629 70.1998 131.124C60.2324 140.388 50.8765 145.463 44.5169 145.463C43.1411 145.433 41.9792 145.158 41.062 144.638ZM113.585 121.34C115.022 133.019 113.249 142.1 109.121 144.516C108.204 145.066 107.012 145.311 105.605 145.311C99.2764 145.311 89.8899 140.266 79.9226 131.063C84.203 126.568 88.4835 121.462 92.5499 115.806C99.4599 115.072 106.003 113.941 111.996 112.443C112.699 115.531 113.249 118.496 113.585 121.34ZM125.357 100.946C122.727 102.078 119.853 103.087 116.887 104.035C115.145 98.0419 112.852 91.8046 110.008 85.4145C112.821 79.0549 115.084 72.8482 116.796 66.8861C119.823 67.834 122.697 68.8735 125.387 70.0048C136.211 74.6216 143.212 80.6754 143.212 85.4756C143.182 90.2759 136.18 96.3603 125.357 100.946Z" fill="#61DAFB"/>
<path d="M74.9694 99.4483C82.6863 99.4483 88.9421 93.1925 88.9421 85.4756C88.9421 77.7587 82.6863 71.5029 74.9694 71.5029C67.2525 71.5029 60.9968 77.7587 60.9968 85.4756C60.9968 93.1925 67.2525 99.4483 74.9694 99.4483Z" fill="#61DAFB"/>
</svg>
