<svg width="150" height="147" viewBox="0 0 150 147" fill="none" xmlns="http://www.w3.org/2000/svg">
<g clip-path="url(#clip0_58_144)">
<path d="M26.5625 0.0150146H123.438C138.125 0.0150146 150 11.89 150 26.5775V119.703C150 134.39 138.125 146.265 123.438 146.265H26.5625C11.875 146.265 0 134.39 0 119.703V26.5775C0 11.89 11.875 0.0150146 26.5625 0.0150146Z" fill="#330000"/>
<path d="M72.5 87.515H49.25L44.5 102.203C44.375 102.765 43.875 103.14 43.3125 103.078H31.5625C30.875 103.078 30.6875 102.703 30.875 101.953L51 44.015C51.1875 43.39 51.375 42.7025 51.625 41.9525C51.875 40.64 52 39.265 52 37.89C51.9375 37.5775 52.1875 37.265 52.5 37.2025H68.6875C69.1875 37.2025 69.4375 37.39 69.5 37.7025L92.3125 102.078C92.5 102.765 92.3125 103.078 91.6875 103.078H78.625C78.1875 103.14 77.75 102.828 77.625 102.39L72.5 87.515ZM52.875 74.8275H68.75C68.375 73.515 67.875 71.9525 67.3125 70.3275C66.75 68.64 66.1875 66.8275 65.625 64.9525C65 63.015 64.4375 61.14 63.8125 59.2025C63.1875 57.265 62.625 55.4525 62.125 53.64C61.625 51.89 61.1875 50.265 60.75 48.765H60.625C60.0625 51.4525 59.375 54.14 58.5 56.8275C57.5625 59.8275 56.625 62.9525 55.625 66.0775C54.75 69.265 53.8125 72.2025 52.875 74.8275ZM106.25 48.14C104.187 48.2025 102.187 47.39 100.687 45.9525C99.25 44.39 98.5 42.3275 98.5625 40.2025C98.5 38.0775 99.3125 36.0775 100.812 34.64C102.312 33.2025 104.312 32.4525 106.375 32.4525C108.812 32.4525 110.687 33.2025 112.062 34.64C113.437 36.14 114.187 38.14 114.125 40.2025C114.187 42.3275 113.437 44.39 111.937 45.9525C110.5 47.4525 108.375 48.265 106.25 48.14ZM99.25 102.39V54.265C99.25 53.64 99.5 53.39 100.062 53.39H112.437C113 53.39 113.25 53.7025 113.25 54.265V102.39C113.25 103.078 113 103.39 112.437 103.39H100.187C99.5625 103.39 99.25 103.015 99.25 102.39Z" fill="#FF9A00"/>
</g>
<defs>
<clipPath id="clip0_58_144">
<rect width="150" height="146.28" fill="white"/>
</clipPath>
</defs>
</svg>
